<svg width="30" height="31" viewBox="0 0 30 31" fill="none" xmlns="http://www.w3.org/2000/svg">
<g id="Recherche" clip-path="url(#clip0_25_551)">
<path id="Vector" d="M19.375 18H18.3875L18.0375 17.6625C19.2625 16.2375 20 14.3875 20 12.375C20 7.8875 16.3625 4.25 11.875 4.25C7.3875 4.25 3.75 7.8875 3.75 12.375C3.75 16.8625 7.3875 20.5 11.875 20.5C13.8875 20.5 15.7375 19.7625 17.1625 18.5375L17.5 18.8875V19.875L23.75 26.1125L25.6125 24.25L19.375 18ZM11.875 18C8.7625 18 6.25 15.4875 6.25 12.375C6.25 9.2625 8.7625 6.75 11.875 6.75C14.9875 6.75 17.5 9.2625 17.5 12.375C17.5 15.4875 14.9875 18 11.875 18Z" fill="#042137"/>
</g>
<defs>
<clipPath id="clip0_25_551">
<rect width="30" height="30" fill="white" transform="translate(0 0.5)"/>
</clipPath>
</defs>
</svg>
