<svg width="27" height="30" viewBox="0 0 27 30" fill="none" xmlns="http://www.w3.org/2000/svg">
<path id="Vector" d="M22.125 21.4833C21.0167 21.4833 20.025 21.9208 19.2667 22.6062L8.86875 16.5541C8.94167 16.2187 9 15.8833 9 15.5333C9 15.1833 8.94167 14.8479 8.86875 14.5125L19.15 8.51873C19.9375 9.2479 20.9729 9.69998 22.125 9.69998C24.5458 9.69998 26.5 7.74581 26.5 5.32498C26.5 2.90415 24.5458 0.949982 22.125 0.949982C19.7042 0.949982 17.75 2.90415 17.75 5.32498C17.75 5.67498 17.8083 6.0104 17.8813 6.34581L7.6 12.3396C6.8125 11.6104 5.77708 11.1583 4.625 11.1583C2.20417 11.1583 0.25 13.1125 0.25 15.5333C0.25 17.9541 2.20417 19.9083 4.625 19.9083C5.77708 19.9083 6.8125 19.4562 7.6 18.7271L17.9833 24.7937C17.9104 25.1 17.8667 25.4208 17.8667 25.7416C17.8667 28.0896 19.7771 30 22.125 30C24.4729 30 26.3833 28.0896 26.3833 25.7416C26.3833 23.3937 24.4729 21.4833 22.125 21.4833Z" fill="#042137"/>
</svg>
